<svg width="9" height="14" viewBox="0 0 9 14" fill="none" xmlns="http://www.w3.org/2000/svg">
<path d="M3.42888 11.0212L7.12633 6.53743H4.43615L4.9259 2.69596L1.60323 7.50666H3.92845L3.42888 11.0212ZM2.63361 8.63313H0.610961C0.364617 8.63313 0.185511 8.52529 0.0736447 8.30963C-0.0382219 8.09396 -0.0226441 7.88114 0.120378 7.67118L5.24511 0.252008C5.31918 0.149452 5.42088 0.0757346 5.55023 0.0308569C5.67957 -0.0140098 5.80521 -0.00994842 5.92715 0.0430405C6.04908 0.0931849 6.14722 0.177001 6.22158 0.29449C6.29593 0.41199 6.32785 0.53458 6.31731 0.662258L5.71518 5.41096H8.21603C8.48081 5.41096 8.66893 5.52955 8.78041 5.76673C8.89189 6.00389 8.86273 6.22376 8.69295 6.42633L3.08059 13.2015C2.98986 13.3025 2.8825 13.3696 2.7585 13.4029C2.6345 13.4361 2.51081 13.4205 2.38745 13.356C2.26125 13.2943 2.17037 13.209 2.11481 13.1003C2.05926 12.9915 2.03903 12.8697 2.05413 12.7348L2.63361 8.63313Z" fill="#77818C"/>
</svg>
