<svg width="10" height="14" viewBox="0 0 10 14" fill="none" xmlns="http://www.w3.org/2000/svg">
<path d="M4.01872 11.327L7.71617 6.84321H5.02599L5.51574 3.00174L2.19307 7.81244H4.51829L4.01872 11.327ZM3.22346 8.93891H1.20081C0.954461 8.93891 0.775355 8.83108 0.663488 8.61541C0.551622 8.39974 0.5672 8.18693 0.710222 7.97696L5.83496 0.557794C5.90902 0.455238 6.01073 0.381521 6.14007 0.336643C6.26942 0.291776 6.39506 0.295838 6.51699 0.348827C6.63892 0.398971 6.73707 0.482787 6.81142 0.600276C6.88578 0.717776 6.91769 0.840366 6.90716 0.968044L6.30502 5.71674H8.80587C9.07065 5.71674 9.25878 5.83533 9.37026 6.07251C9.48173 6.30968 9.45258 6.52954 9.28279 6.73211L3.67044 13.5073C3.57971 13.6083 3.47234 13.6754 3.34834 13.7086C3.22434 13.7419 3.10066 13.7263 2.97729 13.6617C2.85109 13.6001 2.76021 13.5148 2.70466 13.4061C2.6491 13.2973 2.62887 13.1755 2.64397 13.0406L3.22346 8.93891Z" fill="white"/>
</svg>
