<svg width="22" height="22" viewBox="0 0 22 22" fill="none" xmlns="http://www.w3.org/2000/svg">
<mask id="path-1-inside-1_1033_1346" fill="white">
<path d="M20.8142 7.89143L20.8068 7.8546C20.8019 7.83005 20.7995 7.80795 20.7921 7.7834C20.7872 7.76867 20.7823 7.75639 20.7798 7.74166C20.7725 7.72202 20.7676 7.69992 20.7577 7.68027C20.7528 7.66554 20.7455 7.65327 20.7381 7.63853C20.7283 7.61889 20.7185 7.6017 20.7086 7.58206C20.7013 7.56978 20.6939 7.55505 20.6841 7.54277C20.6644 7.51331 20.6423 7.48385 20.6202 7.45438C20.608 7.43965 20.5932 7.42246 20.5785 7.40773C20.5687 7.39545 20.5564 7.38563 20.5441 7.37581C20.5294 7.36108 20.5122 7.3488 20.4975 7.33652C20.4852 7.3267 20.4729 7.31688 20.4582 7.30706C20.4533 7.3046 20.4484 7.29969 20.4435 7.29724L11.4691 1.32335C11.3307 1.23088 11.1679 1.18152 11.0014 1.18152C10.8349 1.18152 10.6721 1.23088 10.5336 1.32335L1.55439 7.30215C1.54948 7.3046 1.54457 7.30952 1.53966 7.31197C1.52739 7.32179 1.51511 7.33161 1.50038 7.34143C1.48319 7.35371 1.46846 7.36844 1.45372 7.38072C1.44145 7.39054 1.43163 7.40282 1.41935 7.41264C1.40462 7.42737 1.38989 7.4421 1.37761 7.45929C1.35306 7.4863 1.33341 7.51577 1.31377 7.54768C1.3064 7.55996 1.29658 7.57224 1.28922 7.58697C1.27939 7.60416 1.26957 7.6238 1.25975 7.64344C1.25239 7.65572 1.24747 7.67045 1.24011 7.68518C1.23274 7.70483 1.22538 7.72693 1.21801 7.74657C1.2131 7.7613 1.20819 7.77358 1.20573 7.78831C1.20082 7.81041 1.19591 7.83496 1.191 7.85952L1.18364 7.89635C1.17872 7.93318 1.17627 7.97001 1.17627 8.00684V13.9856C1.17627 14.0225 1.17872 14.0593 1.18364 14.0961L1.191 14.133L1.20573 14.2042C1.21064 14.2189 1.2131 14.2312 1.21801 14.2459C1.22538 14.268 1.23274 14.2876 1.24011 14.3073C1.24502 14.322 1.25239 14.3343 1.25975 14.349C1.26957 14.3687 1.27694 14.3859 1.28922 14.4055C1.29658 14.4178 1.30395 14.4325 1.31377 14.4448C1.32605 14.462 1.33587 14.4792 1.3506 14.4963L1.38006 14.5332C1.39234 14.5479 1.40707 14.5651 1.42181 14.5798C1.43163 14.5921 1.4439 14.6019 1.45618 14.6117C1.47091 14.6265 1.4881 14.6388 1.50283 14.651C1.51511 14.6609 1.52739 14.6707 1.54212 14.6805C1.54703 14.683 1.55194 14.6879 1.55685 14.6903L10.5336 20.6691C10.6711 20.7624 10.8356 20.8115 11.0026 20.8115C11.1647 20.8115 11.3292 20.7649 11.4716 20.6691L20.4484 14.6903C20.4533 14.6879 20.4582 14.683 20.4631 14.6805C20.4754 14.6707 20.4877 14.6609 20.5024 14.651C20.5196 14.6388 20.5343 14.624 20.549 14.6117C20.5613 14.6019 20.5711 14.5897 20.5834 14.5798C20.5981 14.5651 20.6129 14.5504 20.6252 14.5332L20.6546 14.4963L20.6914 14.4448C20.6988 14.4325 20.7086 14.4202 20.716 14.4055C20.7258 14.3859 20.7356 14.3687 20.7455 14.349C20.7528 14.3367 20.7577 14.322 20.7651 14.3073C20.7725 14.2876 20.7798 14.2655 20.7872 14.2459C20.7921 14.2336 20.797 14.2189 20.7995 14.2042C20.8068 14.1821 20.8093 14.1575 20.8142 14.133L20.8216 14.0961C20.8265 14.0593 20.8289 14.0225 20.8289 13.9856V8.00193C20.8216 7.9651 20.8191 7.92827 20.8142 7.89143ZM11.8448 3.59947L18.4595 8.00438L15.5057 9.97849L11.8473 7.53295V3.59947H11.8448ZM10.1555 3.59947V7.53295L6.49703 9.97849L3.54323 8.00438L10.1555 3.59947V3.59947ZM2.86556 9.58072L4.97716 10.9926L2.86556 12.4044V9.58072ZM10.1555 18.3832L3.54323 13.9783L6.49703 12.0042L10.1555 14.4497V18.3832V18.3832ZM11.0002 12.9863L8.01444 10.9926L11.0002 8.99635L13.9859 10.9901L11.0002 12.9863ZM11.8448 18.3832V14.4497L15.5033 12.0042L18.4571 13.9783L11.8448 18.3832V18.3832ZM19.1348 12.4019L17.0231 10.9901L19.1348 9.57827V12.4019Z"/>
</mask>
<path d="M20.8142 7.89143L20.8068 7.8546C20.8019 7.83005 20.7995 7.80795 20.7921 7.7834C20.7872 7.76867 20.7823 7.75639 20.7798 7.74166C20.7725 7.72202 20.7676 7.69992 20.7577 7.68027C20.7528 7.66554 20.7455 7.65327 20.7381 7.63853C20.7283 7.61889 20.7185 7.6017 20.7086 7.58206C20.7013 7.56978 20.6939 7.55505 20.6841 7.54277C20.6644 7.51331 20.6423 7.48385 20.6202 7.45438C20.608 7.43965 20.5932 7.42246 20.5785 7.40773C20.5687 7.39545 20.5564 7.38563 20.5441 7.37581C20.5294 7.36108 20.5122 7.3488 20.4975 7.33652C20.4852 7.3267 20.4729 7.31688 20.4582 7.30706C20.4533 7.3046 20.4484 7.29969 20.4435 7.29724L11.4691 1.32335C11.3307 1.23088 11.1679 1.18152 11.0014 1.18152C10.8349 1.18152 10.6721 1.23088 10.5336 1.32335L1.55439 7.30215C1.54948 7.3046 1.54457 7.30952 1.53966 7.31197C1.52739 7.32179 1.51511 7.33161 1.50038 7.34143C1.48319 7.35371 1.46846 7.36844 1.45372 7.38072C1.44145 7.39054 1.43163 7.40282 1.41935 7.41264C1.40462 7.42737 1.38989 7.4421 1.37761 7.45929C1.35306 7.4863 1.33341 7.51577 1.31377 7.54768C1.3064 7.55996 1.29658 7.57224 1.28922 7.58697C1.27939 7.60416 1.26957 7.6238 1.25975 7.64344C1.25239 7.65572 1.24747 7.67045 1.24011 7.68518C1.23274 7.70483 1.22538 7.72693 1.21801 7.74657C1.2131 7.7613 1.20819 7.77358 1.20573 7.78831C1.20082 7.81041 1.19591 7.83496 1.191 7.85952L1.18364 7.89635C1.17872 7.93318 1.17627 7.97001 1.17627 8.00684V13.9856C1.17627 14.0225 1.17872 14.0593 1.18364 14.0961L1.191 14.133L1.20573 14.2042C1.21064 14.2189 1.2131 14.2312 1.21801 14.2459C1.22538 14.268 1.23274 14.2876 1.24011 14.3073C1.24502 14.322 1.25239 14.3343 1.25975 14.349C1.26957 14.3687 1.27694 14.3859 1.28922 14.4055C1.29658 14.4178 1.30395 14.4325 1.31377 14.4448C1.32605 14.462 1.33587 14.4792 1.3506 14.4963L1.38006 14.5332C1.39234 14.5479 1.40707 14.5651 1.42181 14.5798C1.43163 14.5921 1.4439 14.6019 1.45618 14.6117C1.47091 14.6265 1.4881 14.6388 1.50283 14.651C1.51511 14.6609 1.52739 14.6707 1.54212 14.6805C1.54703 14.683 1.55194 14.6879 1.55685 14.6903L10.5336 20.6691C10.6711 20.7624 10.8356 20.8115 11.0026 20.8115C11.1647 20.8115 11.3292 20.7649 11.4716 20.6691L20.4484 14.6903C20.4533 14.6879 20.4582 14.683 20.4631 14.6805C20.4754 14.6707 20.4877 14.6609 20.5024 14.651C20.5196 14.6388 20.5343 14.624 20.549 14.6117C20.5613 14.6019 20.5711 14.5897 20.5834 14.5798C20.5981 14.5651 20.6129 14.5504 20.6252 14.5332L20.6546 14.4963L20.6914 14.4448C20.6988 14.4325 20.7086 14.4202 20.716 14.4055C20.7258 14.3859 20.7356 14.3687 20.7455 14.349C20.7528 14.3367 20.7577 14.322 20.7651 14.3073C20.7725 14.2876 20.7798 14.2655 20.7872 14.2459C20.7921 14.2336 20.797 14.2189 20.7995 14.2042C20.8068 14.1821 20.8093 14.1575 20.8142 14.133L20.8216 14.0961C20.8265 14.0593 20.8289 14.0225 20.8289 13.9856V8.00193C20.8216 7.9651 20.8191 7.92827 20.8142 7.89143ZM11.8448 3.59947L18.4595 8.00438L15.5057 9.97849L11.8473 7.53295V3.59947H11.8448ZM10.1555 3.59947V7.53295L6.49703 9.97849L3.54323 8.00438L10.1555 3.59947V3.59947ZM2.86556 9.58072L4.97716 10.9926L2.86556 12.4044V9.58072ZM10.1555 18.3832L3.54323 13.9783L6.49703 12.0042L10.1555 14.4497V18.3832V18.3832ZM11.0002 12.9863L8.01444 10.9926L11.0002 8.99635L13.9859 10.9901L11.0002 12.9863ZM11.8448 18.3832V14.4497L15.5033 12.0042L18.4571 13.9783L11.8448 18.3832V18.3832ZM19.1348 12.4019L17.0231 10.9901L19.1348 9.57827V12.4019Z" fill="#2188FF" stroke="#2188FF" stroke-width="0.00223214" mask="url(#path-1-inside-1_1033_1346)"/>
</svg>
