<svg width="22" height="22" viewBox="0 0 22 22" fill="none" xmlns="http://www.w3.org/2000/svg">
<path d="M11.3018 0.61172C11.2846 0.611877 11.2675 0.612455 11.2504 0.613451C11.1779 0.618598 11.1064 0.6331 11.0379 0.656565C10.9859 0.674479 10.9361 0.697393 10.889 0.724959L2.23382 5.52414C2.11202 5.5917 2.01088 5.68887 1.94057 5.80587C1.87025 5.92287 1.83324 6.05558 1.83325 6.19068C1.83325 6.19587 1.83361 6.20176 1.83379 6.2073C1.83361 6.21336 1.83379 6.21942 1.83379 6.22565V15.8101C1.83377 15.9493 1.87307 16.086 1.94751 16.2054C2.02196 16.3249 2.12876 16.4228 2.25654 16.4886L10.9082 21.2862C10.9244 21.295 10.9406 21.3032 10.9568 21.311V21.3128C10.9812 21.3241 11.0062 21.3341 11.0316 21.3429C11.0316 21.3438 11.0407 21.3455 11.0425 21.3464C11.0677 21.355 11.0929 21.3617 11.1191 21.3676C11.1281 21.3684 11.129 21.3702 11.1335 21.371C11.1587 21.3762 11.1849 21.3807 11.211 21.3837C11.211 21.3841 11.22 21.3844 11.2236 21.3845C11.2507 21.3871 11.2786 21.3889 11.3057 21.3889C11.3327 21.3889 11.3606 21.3871 11.3877 21.3845C11.3877 21.3841 11.3967 21.3838 11.4003 21.3837C11.4264 21.381 11.4523 21.3768 11.4778 21.371C11.4868 21.3702 11.4877 21.3693 11.4922 21.3676C11.5181 21.3617 11.5437 21.3546 11.5689 21.3464C11.5689 21.3455 11.5779 21.3438 11.5797 21.3429C11.6051 21.3341 11.6301 21.3241 11.6545 21.3128V21.3111C11.671 21.3033 11.6872 21.295 11.7032 21.2863L20.355 16.4886C20.4828 16.4229 20.5896 16.325 20.664 16.2055C20.7384 16.086 20.7777 15.9494 20.7777 15.8102V6.21985C20.7777 6.21206 20.7772 6.20496 20.777 6.19752H20.7772V6.19059C20.7772 6.0794 20.7521 5.96954 20.7036 5.86859C20.6551 5.76763 20.5843 5.67797 20.4963 5.60578C20.4873 5.59885 20.4792 5.59175 20.4701 5.58491C20.4701 5.58318 20.4611 5.58059 20.4611 5.57885C20.4304 5.55632 20.3981 5.53592 20.3643 5.51782L11.7141 0.720717C11.5877 0.6478 11.4427 0.609868 11.2953 0.611114L11.3018 0.61172ZM11.3108 2.56164C11.3757 2.56164 11.4409 2.57783 11.4992 2.61012L17.3911 5.87745C17.6425 6.01684 17.6425 6.36513 17.3911 6.50451L11.4991 9.77184C11.4418 9.80362 11.3768 9.82035 11.3106 9.82035C11.2444 9.82035 11.1794 9.80362 11.1221 9.77184L5.23024 6.50451C4.97894 6.36521 4.97885 6.01684 5.23024 5.87745L11.1223 2.61012C11.1796 2.57841 11.2446 2.56169 11.3107 2.56164H11.3108ZM4.02764 8.15263C4.09567 8.15169 4.16267 8.1686 4.22143 8.20155L10.102 11.4625C10.1591 11.4941 10.2066 11.5397 10.2396 11.5946C10.2726 11.6495 10.29 11.7118 10.29 11.7752V18.2965C10.29 18.5746 9.97659 18.7484 9.72574 18.6093L3.84547 15.3484C3.7883 15.3167 3.74083 15.2711 3.70783 15.2162C3.67482 15.1613 3.65744 15.099 3.65744 15.0356V8.51426C3.65744 8.30578 3.83366 8.15584 4.02764 8.15263ZM18.5937 8.15263C18.7875 8.1561 18.9639 8.3057 18.9639 8.51426V15.0355C18.9639 15.1645 18.8918 15.2838 18.7758 15.3484L12.8953 18.6093C12.6447 18.7483 12.3312 18.5746 12.3312 18.2964V11.7752C12.3312 11.6462 12.4033 11.527 12.5193 11.4624L18.3996 8.20146C18.4584 8.1685 18.5255 8.15159 18.5936 8.15255L18.5937 8.15263Z" fill="#2188FF"/>
</svg>
