<svg width="24" height="24" viewBox="0 0 24 24" fill="none" xmlns="http://www.w3.org/2000/svg">
<path d="M7.44653 10.9286H16.6072C16.618 10.9286 16.6314 10.9286 16.6421 10.9259C16.7599 10.9072 16.8376 10.7974 16.8189 10.6795L15.7421 4.03664C15.726 3.93218 15.6349 3.85718 15.5305 3.85718H8.52332C8.41885 3.85718 8.32778 3.93218 8.31171 4.03664L7.23493 10.6795C7.23225 10.6902 7.23225 10.7036 7.23225 10.7143C7.23225 10.8322 7.32868 10.9286 7.44653 10.9286ZM9.88939 5.67861H14.1617L14.7162 9.10718H9.33225L9.88939 5.67861V5.67861ZM9.95635 13.2509C9.94028 13.1465 9.84921 13.0715 9.74475 13.0715H2.7376C2.63314 13.0715 2.54207 13.1465 2.526 13.2509L1.44921 19.8938C1.44653 19.9045 1.44653 19.9179 1.44653 19.9286C1.44653 20.0465 1.54296 20.1429 1.66082 20.1429H10.8215C10.8322 20.1429 10.8456 20.1429 10.8564 20.1402C10.9742 20.1215 11.0519 20.0116 11.0331 19.8938L9.95635 13.2509V13.2509ZM3.54921 18.3215L4.10368 14.8929H8.376L8.93046 18.3215H3.54921ZM22.551 19.8938L21.4742 13.2509C21.4581 13.1465 21.3671 13.0715 21.2626 13.0715H14.2555C14.151 13.0715 14.0599 13.1465 14.0439 13.2509L12.9671 19.8938C12.9644 19.9045 12.9644 19.9179 12.9644 19.9286C12.9644 20.0465 13.0608 20.1429 13.1787 20.1429H22.3394C22.3501 20.1429 22.3635 20.1429 22.3742 20.1402C22.4894 20.1215 22.5697 20.0116 22.551 19.8938V19.8938ZM15.0671 18.3215L15.6215 14.8929H19.8939L20.4483 18.3215H15.0671Z" fill="white"/>
</svg>
