<svg width="22" height="22" viewBox="0 0 22 22" fill="none" xmlns="http://www.w3.org/2000/svg">
<path fill-rule="evenodd" clip-rule="evenodd" d="M10.6946 1.22217C6.48043 1.22217 3.05566 4.27772 3.05566 7.94439C3.05566 13.4688 10.6946 20.7777 10.6946 20.7777C10.6946 20.7777 18.3334 13.4688 18.3334 7.94439C18.3334 4.27772 14.9087 1.22217 10.6946 1.22217ZM10.6946 19.0055C8.3265 16.5244 4.32881 11.5377 4.32881 7.94439C4.32881 4.91328 7.1934 2.44439 10.6946 2.44439C12.4006 2.44439 14.0175 3.03106 15.227 4.10661C16.3983 5.15772 17.0603 6.51439 17.0603 7.94439C17.0603 11.5377 13.0626 16.5244 10.6946 19.0055ZM13.2408 7.94439C13.2408 9.30106 12.1077 10.3888 10.6946 10.3888C9.28136 10.3888 8.14826 9.30106 8.14826 7.94439C8.14826 6.58772 9.28136 5.49995 10.6946 5.49995C12.1077 5.49995 13.2408 6.58772 13.2408 7.94439Z" fill="#2188FF"/>
</svg>
